<svg xmlns="http://www.w3.org/2000/svg" width="199.44" height="68.932" viewBox="0 0 199.44 68.932">
  <g id="andrea-vandermeer-rgb" transform="translate(-17.1 -18.9)">
    <g id="Group_21" data-name="Group 21" transform="translate(17.1 18.9)">
      <path id="Path_85" data-name="Path 85" d="M40.543,46.881H28.671l-1.807,5.463H17.1L29.295,18.9H40.006L52.157,52.344H42.328Zm-2.323-7.119L34.607,28.944,31.058,39.762Z" transform="translate(-17.1 -18.9)"/>
      <path id="Path_86" data-name="Path 86" d="M225.193,52.344H215.88l-12.388-18.69v18.69H194.2V18.9h9.291L215.88,37.827V18.9h9.291V52.344Z" transform="translate(-156.11 -18.9)"/>
      <path id="Path_87" data-name="Path 87" d="M385.454,21.008a14.674,14.674,0,0,1,6.087,5.915,17.456,17.456,0,0,1,2.129,8.689,17.056,17.056,0,0,1-2.151,8.625,15.282,15.282,0,0,1-6.13,5.958,18.873,18.873,0,0,1-9.184,2.151H363V18.9h13.227A19.216,19.216,0,0,1,385.454,21.008Zm-3.527,20.884a8.328,8.328,0,0,0,2.323-6.3,8.5,8.5,0,0,0-2.323-6.388,8.794,8.794,0,0,0-6.409-2.258h-3.226V44.107h3.226A8.685,8.685,0,0,0,381.927,41.892Z" transform="translate(-288.605 -18.9)"/>
      <path id="Path_88" data-name="Path 88" d="M542.105,52.344,535.481,40h-.989V52.323H525.2V18.9h14.668a15.32,15.32,0,0,1,6.839,1.4,9.674,9.674,0,0,1,4.216,3.85,10.746,10.746,0,0,1,1.419,5.484,9.953,9.953,0,0,1-1.871,6,10.152,10.152,0,0,1-5.484,3.678l7.549,13.055H542.105Zm-7.635-18.69h4.6a3.947,3.947,0,0,0,2.839-.9,3.445,3.445,0,0,0,.946-2.6,3.354,3.354,0,0,0-.968-2.538,3.9,3.9,0,0,0-2.818-.925h-4.6Z" transform="translate(-415.92 -18.9)"/>
      <path id="Path_89" data-name="Path 89" d="M680.113,26.342V31.8h10.668v7.076H680.113V44.9H692.2v7.442H670.8V18.9h21.4v7.442Z" transform="translate(-530.205 -18.9)"/>
      <path id="Path_90" data-name="Path 90" d="M804.622,46.881H792.771l-1.807,5.463H781.2L793.395,18.9h10.711l12.152,33.444h-9.829ZM802.3,39.762l-3.613-10.818-3.549,10.818Z" transform="translate(-616.86 -18.9)"/>
    </g>
    <g id="Group_22" data-name="Group 22" transform="translate(17.1 66.991)">
      <path id="Path_91" data-name="Path 91" d="M35.252,242.6l-7.893,20.8H24.993L17.1,242.6h2.258l6.818,18.54,6.882-18.54Z" transform="translate(-17.1 -242.579)"/>
      <path id="Path_92" data-name="Path 92" d="M122.964,259.493H113.5l-1.807,4.947H109.5l7.592-20.54h2.344l7.549,20.54h-2.194Zm-.624-1.721-4.108-11.249-4.108,11.249Z" transform="translate(-89.627 -243.599)"/>
      <path id="Path_93" data-name="Path 93" d="M221.9,263.4h-2.086l-11.528-17.486V263.4H206.2V242.6h2.086l11.507,17.464V242.6h2.086v20.8Z" transform="translate(-165.529 -242.579)"/>
      <path id="Path_94" data-name="Path 94" d="M351.166,243.769a8.858,8.858,0,0,1,3.785,3.592,11.257,11.257,0,0,1,1.312,5.592,11.034,11.034,0,0,1-1.312,5.549,8.687,8.687,0,0,1-3.785,3.57,13.192,13.192,0,0,1-5.915,1.226H339.1V242.5h6.151A13.413,13.413,0,0,1,351.166,243.769Zm.71,15.55a8.558,8.558,0,0,0,2.28-6.345,8.682,8.682,0,0,0-2.28-6.409c-1.527-1.527-3.721-2.3-6.624-2.3h-4.086V261.62h4.086C348.155,261.6,350.349,260.846,351.876,259.319Z" transform="translate(-269.845 -242.5)"/>
      <path id="Path_95" data-name="Path 95" d="M438.786,244.221v7.764h7.893v1.721h-7.893V261.6h8.775v1.721H436.7V242.5h10.861v1.721Z" transform="translate(-346.454 -242.5)"/>
      <path id="Path_96" data-name="Path 96" d="M517.376,263.4l-5.14-8.689h-3.85V263.4H506.3V242.6h6.259a7.609,7.609,0,0,1,5.291,1.656,5.663,5.663,0,0,1,1.807,4.366,5.9,5.9,0,0,1-1.29,3.85,6.223,6.223,0,0,1-3.828,2.065l5.355,8.84h-2.516Zm-8.99-10.367h4.194a5.077,5.077,0,0,0,3.678-1.183,4.229,4.229,0,0,0,1.226-3.183A4.074,4.074,0,0,0,516.3,245.5a5.3,5.3,0,0,0-3.742-1.118h-4.172Z" transform="translate(-401.085 -242.579)"/>
      <path id="Path_97" data-name="Path 97" d="M645.725,243.9v20.54h-2.086V248.051l-7.313,16.389H634.8l-7.313-16.346V264.44H625.4V243.9h2.194l7.936,17.787,7.936-17.787h2.258Z" transform="translate(-494.569 -243.599)"/>
      <path id="Path_98" data-name="Path 98" d="M743.986,244.221v7.764h7.893v1.721h-7.893V261.6h8.775v1.721H741.9V242.5h10.861v1.721Z" transform="translate(-586.013 -242.5)"/>
      <path id="Path_99" data-name="Path 99" d="M813.586,244.221v7.764h7.893v1.721h-7.893V261.6h8.775v1.721H811.5V242.5h10.861v1.721Z" transform="translate(-640.643 -242.5)"/>
      <path id="Path_100" data-name="Path 100" d="M892.255,263.4l-5.14-8.689h-3.828V263.4H881.2V242.6h6.259a7.609,7.609,0,0,1,5.291,1.656,5.663,5.663,0,0,1,1.807,4.366,5.9,5.9,0,0,1-1.29,3.85,6.223,6.223,0,0,1-3.828,2.065l5.355,8.84h-2.538Zm-8.99-10.367h4.194a5.111,5.111,0,0,0,3.678-1.183,4.229,4.229,0,0,0,1.226-3.183,4.074,4.074,0,0,0-1.183-3.162,5.3,5.3,0,0,0-3.742-1.118h-4.172Z" transform="translate(-695.352 -242.579)"/>
    </g>
  </g>
</svg>
